<svg width="25" height="15" viewBox="0 0 25 15" fill="none" xmlns="http://www.w3.org/2000/svg">
<path d="M10.7411 4.3969L11.3657 4.69761L11.6003 4.0453C12.3611 1.93014 14.1289 0.579769 16.0712 0.626176C18.4105 0.698047 20.429 2.82512 20.6452 5.70032L20.6846 6.22446L21.2078 6.2755C22.7561 6.42654 24.1274 8.1106 24.0797 10.3825L24.0797 10.383C24.032 12.7334 22.485 14.3629 20.8685 14.3201L20.8602 14.3199H20.852C20.5546 14.3199 16.5279 14.3333 12.4594 14.347L12.3214 14.3474C8.24034 14.3611 4.1592 14.3748 3.7847 14.375C2.99716 14.3504 2.19532 13.9438 1.58624 13.2838C0.9767 12.6232 0.604406 11.7556 0.625887 10.8797L0.625891 10.8795C0.670519 9.03603 2.08536 7.66731 3.70633 7.7119L3.71492 7.71214H3.72352C3.93612 7.71214 4.18859 7.75423 4.43513 7.82544L5.09083 8.01485L5.22194 7.34505C5.61252 5.3496 7.24638 3.94555 9.14363 3.98975C9.72575 4.01416 10.2398 4.15554 10.7411 4.3969Z" fill="#1D428A" stroke="#1D428A" stroke-width="1.25"/>
</svg>
